<svg version="1.1" id="Layer_1" xmlns="http://www.w3.org/2000/svg" xmlns:xlink="http://www.w3.org/1999/xlink" x="0px" y="0px"
	 width="100%" viewBox="0 0 1024 1024" enable-background="new 0 0 1024 1024" xml:space="preserve">
<path fill="#000000" opacity="1.000000" stroke="none" 
	d="
M563.989136,477.921143 
	C560.385925,476.424713 559.536133,473.952087 559.592651,470.565613 
	C559.759460,460.569214 559.664124,450.568207 559.641479,440.569031 
	C559.622375,432.150543 555.261230,429.679321 547.826782,433.907227 
	C537.689636,439.672089 527.526611,445.395660 517.500977,451.349548 
	C514.708557,453.007843 512.529114,453.174866 509.748413,451.378326 
	C506.032501,448.977570 502.380859,446.344391 497.768341,444.764130 
	C496.677551,448.976929 497.234619,452.930786 497.273865,456.848999 
	C497.284485,457.909882 497.767212,458.846588 498.661285,459.380768 
	C503.093353,462.028625 507.536896,464.659241 512.025208,467.210022 
	C514.133179,468.407990 515.895996,467.012909 517.602478,466.062866 
	C524.443604,462.253998 531.232666,458.351562 538.069336,454.534668 
	C540.354431,453.258881 542.724487,452.135223 544.936951,451.002869 
	C546.864380,452.605072 546.340881,454.386139 546.346375,455.941742 
	C546.393982,469.440491 546.302307,482.940033 546.419128,496.437897 
	C546.445007,499.431335 545.567688,501.438751 542.899780,502.950104 
	C534.057800,507.959015 525.282043,513.086548 516.533569,518.257690 
	C514.427368,519.502625 512.659241,519.512451 510.518250,518.249878 
	C492.436096,507.586029 474.316589,496.985168 456.166382,486.437531 
	C453.749573,485.033051 452.654510,483.309052 452.671051,480.430969 
	C452.768799,463.432922 452.768188,446.433624 452.658264,429.435699 
	C452.638580,426.393524 453.712799,424.563049 456.350250,423.045135 
	C473.966644,412.906372 491.552155,402.711761 509.037506,392.349304 
	C512.883240,390.070190 516.137268,389.503967 519.895752,392.405762 
	C522.756470,394.614441 526.322327,395.861847 528.900146,398.510956 
	C528.412231,400.826019 526.334534,401.130554 524.841309,401.989410 
	C507.223114,412.123657 489.599091,422.248718 471.896759,432.234680 
	C469.214142,433.747955 468.197266,435.550598 468.236389,438.591156 
	C468.375671,449.421722 468.331085,460.255676 468.241608,471.087433 
	C468.219147,473.806732 468.833588,475.708557 471.449280,477.196014 
	C484.482147,484.607239 497.434418,492.162750 510.324066,499.820618 
	C512.630554,501.190918 514.482849,501.472778 516.708557,499.921173 
	C518.342041,498.782440 520.153687,497.896362 521.899475,496.921997 
	C531.795227,491.399261 532.393372,490.053162 530.066528,477.800812 
	C525.562927,479.276459 521.783752,482.002960 517.869690,484.342804 
	C514.949402,486.088562 512.627258,486.209503 509.655518,484.336761 
	C502.046814,479.541931 494.303955,474.943268 486.449005,470.563477 
	C482.860870,468.562744 481.131226,466.283875 481.443878,461.915314 
	C481.810425,456.794006 481.294800,451.601501 481.033844,446.446381 
	C480.883575,443.478180 481.881714,441.537537 484.607300,439.996368 
	C502.879974,429.664246 521.102783,419.242035 539.242615,408.678772 
	C542.407166,406.835968 544.809631,406.918518 547.887512,408.878601 
	C555.613342,413.798676 563.550293,418.390137 571.451904,423.029510 
	C573.744995,424.375885 575.342957,425.830383 575.327332,428.831238 
	C575.237793,445.995911 575.293640,463.161346 575.274780,480.326477 
	C575.273743,481.277863 575.468628,482.360992 574.022888,483.317566 
	C570.549866,482.464935 567.658264,479.825317 563.989136,477.921143 
z"/>
<path fill="#000000" opacity="1.000000" stroke="none" 
	d="
M333.973358,542.650879 
	C338.543579,542.467041 342.321472,543.710083 345.934143,545.500916 
	C347.887726,546.469299 349.303741,547.757690 347.724945,550.208984 
	C346.419922,552.235229 345.495392,554.244934 342.351959,552.367004 
	C338.785187,550.236206 334.905487,548.555786 330.502472,549.919617 
	C328.452637,550.554565 326.726105,551.596619 326.671387,553.944641 
	C326.622620,556.037109 328.092438,557.322144 329.923157,557.924011 
	C333.396271,559.065857 336.952454,559.952881 340.437714,561.060303 
	C347.389008,563.269165 350.431427,566.853760 350.310211,572.531555 
	C350.185516,578.371399 346.611115,582.493652 339.963959,584.334290 
	C332.359436,586.439941 325.502411,584.307617 318.986053,580.466125 
	C316.903320,579.238342 316.213165,577.655945 317.953217,575.572876 
	C319.363281,573.884766 320.538086,572.073669 323.226868,573.959839 
	C327.147491,576.710205 331.573883,578.225098 336.421844,577.473022 
	C338.909271,577.087219 341.458160,576.209106 341.748779,573.084045 
	C342.032318,570.035828 339.597595,569.175720 337.386200,568.449341 
	C334.229279,567.412537 330.948181,566.751099 327.798584,565.695251 
	C320.486359,563.243896 317.782410,559.381042 318.620850,552.906372 
	C319.360107,547.197571 324.141937,543.252625 331.020782,542.699341 
	C331.849457,542.632690 332.686005,542.664062 333.973358,542.650879 
z"/>
<path fill="#000000" opacity="1.000000" stroke="none" 
	d="
M419.098755,552.288818 
	C425.170532,554.314880 426.797211,559.033447 427.135742,564.195557 
	C427.483887,569.503784 427.069885,574.857483 427.174652,580.187683 
	C427.239471,583.484619 425.613159,584.545654 422.598724,584.613403 
	C419.125824,584.691406 418.932617,582.451233 419.015839,579.952454 
	C419.148865,575.958313 419.350952,571.966553 419.498718,567.972900 
	C419.701874,562.482544 416.916779,558.678406 412.686584,558.630981 
	C408.067841,558.579163 405.356445,561.710449 405.275085,567.279297 
	C405.211792,571.611694 405.166382,575.945862 405.214844,580.278076 
	C405.247711,583.218262 403.974121,584.412048 400.990570,584.423401 
	C397.721802,584.435913 397.121399,582.710083 397.167267,579.977661 
	C397.362915,568.329468 397.502716,556.680237 397.599731,545.030762 
	C397.622253,542.326721 397.732239,540.001648 401.399292,539.981506 
	C405.006104,539.961731 405.376038,542.144653 405.295227,544.933533 
	C405.213867,547.741943 405.277313,550.554626 405.277313,553.913635 
	C409.953278,552.110046 414.209686,550.804626 419.098755,552.288818 
z"/>
<path fill="#000000" opacity="1.000000" stroke="none" 
	d="
M521.211060,584.200073 
	C519.025940,581.760071 517.262573,582.876404 515.191040,583.877502 
	C510.362488,586.210876 505.451660,586.228271 501.054932,582.850525 
	C494.704010,577.971436 495.842133,569.698608 503.190308,566.354187 
	C506.622437,564.791992 510.259186,564.630127 513.948425,564.647949 
	C515.349976,564.654785 517.231689,565.083252 517.478210,562.894958 
	C517.671448,561.179993 516.454651,560.158691 515.054321,559.456787 
	C511.774719,557.812866 508.464661,558.271423 505.477692,559.987244 
	C502.811279,561.518982 501.218842,560.979797 499.849274,558.408752 
	C498.191589,555.296936 500.680756,554.628296 502.569458,553.768188 
	C505.941254,552.232727 509.498566,551.498596 513.245178,551.682129 
	C521.324463,552.078003 525.654114,556.488586 526.266235,564.561462 
	C526.683594,570.065552 524.950806,575.686768 528.067688,581.110657 
	C529.576233,583.735779 526.038757,585.574585 521.211060,584.200073 
M512.606262,570.316162 
	C511.154083,570.533630 509.665131,570.616455 508.258698,571.001160 
	C506.333954,571.527710 505.144409,572.790222 505.277130,574.951477 
	C505.408234,577.085449 506.710510,578.224976 508.658508,578.607727 
	C510.969940,579.061829 513.256836,578.948242 515.282593,577.531738 
	C517.032837,576.307922 518.010620,574.583191 517.719055,572.469055 
	C517.361145,569.873779 515.135437,570.499512 512.606262,570.316162 
z"/>
<path fill="#000000" opacity="1.000000" stroke="none" 
	d="
M616.681641,590.597168 
	C621.418152,589.036987 622.495850,586.156372 620.736267,581.954834 
	C617.461060,574.134277 614.263123,566.281372 611.034546,558.441345 
	C610.283264,556.617004 609.293030,554.846680 609.636780,552.549744 
	C614.013062,550.637939 616.736389,551.795593 618.396667,556.394775 
	C620.518188,562.271729 623.020569,568.011169 625.861023,575.055481 
	C628.730957,567.830383 631.208801,561.917847 633.422974,555.908142 
	C635.005737,551.612122 637.780945,550.965637 642.427734,552.755249 
	C640.123535,558.654297 637.890259,564.470398 635.581726,570.256470 
	C632.871338,577.049683 630.236877,583.878723 627.306946,590.577393 
	C624.593201,596.781738 619.010925,599.341736 613.118958,597.327026 
	C611.218201,596.677124 608.442627,596.404053 609.499573,593.185547 
	C610.332581,590.649048 611.940735,589.241577 614.825317,590.474792 
	C615.260559,590.660889 615.809692,590.580811 616.681641,590.597168 
z"/>
<path fill="#000000" opacity="1.000000" stroke="none" 
	d="
M469.817261,568.130127 
	C468.659454,577.576843 463.707855,583.335144 455.737885,584.955017 
	C449.158234,586.292358 442.166595,583.240417 438.700287,577.286072 
	C435.007690,570.943054 435.265747,564.593445 439.413391,558.546387 
	C443.326630,552.841064 450.643280,550.171021 457.482117,552.056885 
	C464.397308,553.963745 468.498352,558.534851 469.430908,565.766052 
	C469.515778,566.424011 469.658173,567.074646 469.817261,568.130127 
M444.308472,570.064575 
	C446.122772,575.838928 449.329437,578.436340 454.154816,577.724670 
	C458.653534,577.061279 461.175873,574.244690 461.718079,569.771179 
	C462.380737,564.304138 459.987305,560.390381 455.220184,558.889648 
	C449.315735,557.030884 444.645264,561.451172 444.308472,570.064575 
z"/>
<path fill="#000000" opacity="1.000000" stroke="none" 
	d="
M649.155518,569.607300 
	C649.272827,564.836426 649.313599,560.514832 649.595947,556.208984 
	C649.862000,552.151733 652.557861,550.241272 655.757385,552.337219 
	C657.882690,553.729553 659.151855,553.295654 661.050476,552.588928 
	C669.890015,549.299011 677.267029,553.388916 678.783875,562.615295 
	C679.811768,568.867371 679.143311,575.218506 679.052734,581.526550 
	C679.014343,584.195129 677.171631,584.771301 674.988464,584.826294 
	C672.684021,584.884399 671.042175,584.018799 671.000061,581.460449 
	C670.917969,576.474976 670.990417,571.486389 670.873474,566.502075 
	C670.753662,561.395325 668.521362,558.783386 664.444336,558.724060 
	C660.081238,558.660583 657.403503,561.473328 657.290039,566.444397 
	C657.183838,571.096924 657.109863,575.756653 657.250916,580.406250 
	C657.353271,583.780334 655.586670,584.770386 652.652100,584.750061 
	C649.339478,584.727112 648.884644,582.596436 649.202759,580.005066 
	C649.610413,576.683899 649.658142,573.376587 649.155518,569.607300 
z"/>
<path fill="#000000" opacity="1.000000" stroke="none" 
	d="
M596.063171,552.434814 
	C597.707825,553.012268 598.999146,553.369324 600.192749,553.933228 
	C602.023071,554.797852 603.324829,556.001343 601.901489,558.204285 
	C600.814636,559.886230 599.869080,561.812805 597.251343,560.371887 
	C594.746948,558.993347 592.092712,558.074402 589.153503,558.324280 
	C587.530701,558.462219 586.110962,559.037659 585.839722,560.764648 
	C585.578979,562.424561 587.045715,563.054932 588.269775,563.489929 
	C591.240295,564.545654 594.319092,565.307312 597.258850,566.435852 
	C601.173523,567.938660 603.495361,570.671204 603.364502,575.146362 
	C603.237366,579.493103 601.035583,582.388428 597.175659,583.950867 
	C590.584229,586.618896 584.478455,585.013245 578.672302,581.448181 
	C576.630859,580.194763 576.673401,578.679871 577.846924,576.835388 
	C578.962585,575.081787 580.129700,574.000671 582.265930,575.448364 
	C585.423523,577.588318 588.939575,578.328491 592.716614,577.821960 
	C594.131104,577.632385 595.336426,577.099121 595.568787,575.516479 
	C595.799988,573.941895 594.856201,572.952637 593.511475,572.491394 
	C591.003296,571.631165 588.437195,570.941284 585.903503,570.153809 
	C580.437378,568.455200 577.485840,564.984741 577.889404,560.760315 
	C578.340759,556.036011 582.257874,552.368774 587.763855,551.796570 
	C590.392883,551.523315 593.080933,551.399963 596.063171,552.434814 
z"/>
<path fill="#000000" opacity="1.000000" stroke="none" 
	d="
M715.684204,555.047058 
	C717.181580,556.843018 719.844299,558.059753 717.316833,560.558472 
	C715.212952,562.638428 713.366882,563.431396 710.541138,561.015991 
	C706.786438,557.806396 701.929932,558.406799 698.870605,561.666748 
	C695.702271,565.042847 695.370361,570.250916 698.080078,574.071533 
	C700.710449,577.780334 705.204285,578.782471 709.620850,576.599792 
	C710.509460,576.160706 711.381958,575.639648 712.152588,575.020325 
	C714.594788,573.057678 716.224121,574.851624 717.696533,576.343750 
	C719.381592,578.051331 717.832153,579.374023 716.696655,580.551514 
	C711.799194,585.630432 703.415710,586.706116 696.833618,583.145874 
	C690.395081,579.663330 687.190430,572.173950 688.793152,564.355164 
	C690.164795,557.663330 696.269470,552.247620 703.121399,551.690613 
	C707.563660,551.329468 711.727600,552.133179 715.684204,555.047058 
z"/>
<path fill="#000000" opacity="1.000000" stroke="none" 
	d="
M376.328918,558.967407 
	C371.396912,558.431580 368.054626,560.383850 366.675354,564.670166 
	C365.329529,568.852539 365.806732,573.056702 369.625092,575.957947 
	C373.483765,578.889709 377.515564,578.339478 381.048340,575.337708 
	C384.740112,572.200806 386.198547,575.465332 388.300995,577.240356 
	C384.950378,583.588257 377.383148,586.663574 370.434143,584.672913 
	C362.663940,582.446960 357.204346,575.149048 357.947296,567.528137 
	C358.584473,560.992554 361.511902,555.696411 367.816040,553.041443 
	C373.688690,550.568176 379.545197,550.864014 384.884003,554.601929 
	C386.516174,555.744690 389.095947,557.102966 387.257019,559.683960 
	C385.689331,561.884155 383.586670,563.680725 380.653168,560.987183 
	C379.611908,560.031128 378.017548,559.677612 376.328918,558.967407 
z"/>
<path fill="#000000" opacity="1.000000" stroke="none" 
	d="
M555.652832,558.972778 
	C547.879944,559.409424 545.452637,561.859436 545.348328,569.177551 
	C545.296082,572.842712 545.281067,576.509705 545.332642,580.174683 
	C545.367126,582.628052 544.913696,584.353821 541.840454,584.391052 
	C538.848328,584.427246 537.629822,583.268677 537.660278,580.283752 
	C537.740234,572.453125 537.640076,564.620667 537.695740,556.789551 
	C537.709167,554.899048 537.150696,552.510315 539.972351,551.966431 
	C542.368286,551.504639 544.699341,551.512573 545.765381,554.753845 
	C549.448425,552.711670 553.338074,549.824768 557.261536,552.771790 
	C559.315063,554.314270 557.591675,557.002747 555.652832,558.972778 
z"/>
<path fill="#000000" opacity="1.000000" stroke="none" 
	d="
M479.635132,554.008789 
	C479.649261,550.185608 479.715271,546.859375 479.661530,543.535095 
	C479.618439,540.869934 481.166870,540.093384 483.459656,540.047546 
	C485.809204,540.000549 487.288422,540.864258 487.281464,543.485962 
	C487.248444,555.956116 487.238770,568.426331 487.227386,580.896484 
	C487.225037,583.442749 485.864929,584.327148 483.443878,584.382202 
	C480.604767,584.446838 479.648529,583.103516 479.661652,580.445679 
	C479.704285,571.799561 479.651398,563.153015 479.635132,554.008789 
z"/>
</svg>